<svg width="100" height="100" viewBox="0 0 100 100" fill="none" xmlns="http://www.w3.org/2000/svg">
  <path d="M25 20C25 20 35 10 50 10C65 10 75 20 75 20C75 20 85 30 85 45C85 60 75 70 75 70C75 70 65 80 50 80C35 80 25 70 25 70C25 70 15 60 15 45C15 30 25 20 25 20Z" stroke="#4b2e2b" stroke-width="2" stroke-linecap="round" stroke-linejoin="round" fill="none"/>
  <path d="M50 10C50 10 60 20 60 45C60 70 50 80 50 80" stroke="#4b2e2b" stroke-width="2" stroke-linecap="round" stroke-linejoin="round" fill="none"/>
  <path d="M50 10C50 10 40 20 40 45C40 70 50 80 50 80" stroke="#4b2e2b" stroke-width="2" stroke-linecap="round" stroke-linejoin="round" fill="none"/>
</svg>
